<?xml version="1.0" standalone="no"?>
<!DOCTYPE svg PUBLIC "-//W3C//DTD SVG 20010904//EN"
 "http://www.w3.org/TR/2001/REC-SVG-20010904/DTD/svg10.dtd">
<svg version="1.0" xmlns="http://www.w3.org/2000/svg"
 width="16.000000pt" height="16.000000pt" viewBox="0 0 16.000000 16.000000"
 preserveAspectRatio="xMidYMid meet">
<metadata>
Created by potrace 1.11, written by Peter Selinger 2001-2013
</metadata>
<g transform="translate(0.000000,16.000000) scale(0.006275,-0.006275)"
fill="#000000" stroke="none">
<path d="M0 1275 l0 -1275 1275 0 1275 0 0 1275 0 1275 -1275 0 -1275 0 0
-1275z m389 389 c26 -34 26 -54 0 -88 -39 -50 -129 -20 -129 44 0 66 88 96
129 44z m-175 -142 c10 -9 25 -30 33 -47 42 -82 100 -100 147 -44 14 17 26 34
26 39 0 19 53 69 80 75 38 8 85 -17 106 -56 8 -17 22 -68 31 -112 16 -91 34
-127 62 -127 32 0 51 35 67 125 19 110 35 142 81 162 31 12 41 13 71 1 52 -20
70 -62 82 -201 11 -132 28 -177 64 -177 44 0 56 28 70 167 23 219 29 223 301
223 l185 0 0 -30 0 -30 -96 0 c-124 0 -134 -5 -134 -75 l0 -55 105 0 105 0 0
-25 0 -25 -105 0 -105 0 0 -63 c0 -36 5 -68 12 -75 8 -8 48 -12 115 -12 l103
0 0 -31 0 -31 -120 4 c-115 3 -121 4 -147 31 l-28 27 0 165 0 165 -47 0 c-65
0 -73 -17 -88 -169 -13 -142 -32 -191 -79 -211 -42 -17 -95 -5 -121 27 -27 35
-38 80 -46 193 -8 118 -23 160 -58 160 -38 0 -52 -39 -64 -171 -11 -128 -33
-187 -77 -207 -44 -20 -75 -14 -110 21 -36 36 -48 78 -63 235 -10 104 -24 129
-66 118 -31 -8 -41 -42 -50 -166 -9 -113 -22 -157 -56 -192 -52 -52 -134 -28
-166 49 -8 19 -19 88 -24 154 -9 122 -22 159 -57 159 -8 0 -13 12 -13 31 0 29
2 31 28 24 15 -3 35 -14 46 -23z m1709 17 c57 -16 104 -63 122 -122 31 -106
10 -212 -54 -270 -45 -41 -86 -50 -201 -45 l-75 3 -3 214 c-2 165 1 216 10
223 19 11 156 10 201 -3z m450 0 c39 -10 43 -18 27 -49 -8 -16 -15 -17 -42 -9
-51 14 -134 11 -147 -5 -7 -8 -11 -27 -9 -43 3 -24 15 -34 101 -75 113 -56
141 -88 133 -152 -6 -54 -46 -93 -110 -106 -52 -10 -133 -2 -188 19 -26 10
-27 13 -16 36 9 20 17 25 32 20 129 -37 216 -21 216 39 0 38 -28 64 -102 92
-39 16 -87 43 -106 61 -32 30 -34 36 -29 78 5 47 27 81 62 96 29 11 134 11
178 -2z m-886 -545 c40 -11 15 -34 -34 -32 -62 2 -88 -25 -88 -91 0 -63 23
-91 77 -91 38 0 38 0 38 41 l0 41 -37 -4 c-49 -4 -55 18 -8 31 23 6 46 6 61 1
21 -8 24 -16 24 -64 0 -59 -4 -65 -57 -76 -80 -18 -135 28 -137 115 -2 101 65
155 161 129z m228 -19 c29 -28 32 -61 9 -87 -11 -12 -14 -22 -7 -30 9 -12 33
-86 33 -102 0 -3 -8 -6 -18 -6 -13 0 -23 13 -33 48 -14 46 -15 47 -56 50 l-43
3 0 -50 c0 -44 -3 -51 -20 -51 -19 0 -20 7 -20 118 0 65 3 122 7 125 3 4 33 7
65 7 49 0 63 -4 83 -25z m228 4 c48 -37 57 -138 19 -196 -30 -48 -136 -47
-166 0 -37 58 -26 160 21 196 34 27 92 27 126 0z m117 -61 c0 -111 12 -132 73
-136 l47 -3 0 111 c0 101 2 111 18 108 15 -3 17 -18 20 -114 3 -129 -1 -136
-75 -137 -59 0 -90 9 -102 32 -12 22 -26 184 -18 205 4 9 13 16 22 16 12 0 15
-15 15 -82z m361 53 c25 -30 24 -62 -2 -95 -18 -22 -28 -26 -75 -26 l-54 0 0
-50 c0 -38 -4 -50 -15 -50 -13 0 -15 21 -15 126 l0 126 71 -4 c60 -3 74 -8 90
-27z"/>
<path d="M302 1648 c-28 -28 -3 -72 39 -66 30 4 47 33 33 56 -14 21 -55 27
-72 10z"/>
<path d="M1780 1325 l0 -168 70 5 c78 6 103 21 126 75 18 42 18 135 0 178 -20
47 -55 66 -131 73 l-65 5 0 -168z"/>
<path d="M1600 925 l0 -36 48 3 c45 3 47 4 47 33 0 29 -2 30 -47 33 l-48 3 0
-36z"/>
<path d="M1839 951 c-21 -16 -24 -28 -24 -81 0 -49 4 -64 19 -76 54 -39 116 4
116 81 0 79 -58 119 -111 76z"/>
<path d="M2290 920 l0 -41 46 3 c54 3 77 26 58 56 -7 11 -27 18 -58 20 l-46 3
0 -41z"/>
</g>
</svg>
